<?xml version="1.0" standalone="no"?>
<!DOCTYPE svg PUBLIC "-//W3C//DTD SVG 20010904//EN"
 "http://www.w3.org/TR/2001/REC-SVG-20010904/DTD/svg10.dtd">
<svg version="1.0" xmlns="http://www.w3.org/2000/svg"
 width="1024.000000pt" height="1024.000000pt" viewBox="0 0 1024.000000 1024.000000"
 preserveAspectRatio="xMidYMid meet">
<metadata>
Created by potrace 1.14, written by Peter Selinger 2001-2017
</metadata>
<g transform="translate(0.000000,1024.000000) scale(0.100000,-0.100000)"
fill="#000000" stroke="none">
<path d="M4888 10235 c-2 -2 -43 -6 -92 -10 -50 -3 -92 -8 -95 -10 -3 -1 -35
-6 -71 -10 -36 -4 -74 -9 -85 -11 -93 -18 -184 -36 -205 -40 -14 -3 -34 -8
-45 -11 -28 -9 -42 -13 -110 -27 -11 -2 -42 -12 -70 -21 -27 -10 -54 -19 -60
-20 -5 -1 -17 -5 -25 -8 -8 -3 -33 -11 -55 -17 -22 -7 -53 -18 -70 -25 -16 -7
-57 -23 -90 -36 -33 -12 -89 -36 -125 -53 -36 -16 -67 -30 -70 -31 -24 -5
-259 -133 -337 -182 -29 -18 -56 -34 -60 -35 -5 -1 -13 -6 -20 -12 -16 -14
-35 -28 -55 -41 -76 -49 -248 -179 -293 -222 -8 -7 -19 -13 -25 -13 -6 0 -8
-4 -5 -10 3 -5 2 -10 -2 -10 -21 0 -250 -224 -363 -356 -69 -80 -85 -100 -146
-179 -90 -119 -274 -403 -274 -424 0 -5 -6 -16 -13 -23 -28 -30 -173 -348
-207 -453 -7 -22 -18 -53 -26 -70 -12 -27 -68 -211 -79 -258 -2 -10 -6 -26 -9
-35 -3 -9 -7 -28 -10 -42 -3 -14 -8 -36 -11 -50 -3 -14 -8 -36 -11 -50 -2 -14
-7 -38 -11 -55 -4 -16 -8 -39 -9 -50 -1 -11 -5 -29 -7 -41 -7 -28 -19 -120
-22 -164 -2 -19 -4 -35 -5 -35 -4 0 -10 -100 -23 -373 -1 -23 0 -42 3 -42 3 0
5 -44 6 -98 1 -175 22 -347 69 -587 4 -16 8 -39 10 -50 12 -67 106 -385 132
-445 3 -8 7 -18 8 -22 2 -5 4 -10 5 -13 1 -3 3 -8 5 -12 1 -5 7 -21 14 -38 7
-16 12 -32 13 -35 0 -3 6 -16 13 -30 7 -14 25 -52 40 -85 99 -218 210 -408
367 -628 98 -137 110 -154 156 -214 17 -24 32 -45 32 -48 0 -5 25 -37 48 -60
6 -8 12 -16 12 -19 0 -5 115 -162 143 -196 7 -9 16 -22 20 -30 4 -8 21 -33 38
-55 16 -22 39 -55 51 -72 11 -18 24 -33 29 -33 5 0 9 -4 9 -9 0 -12 111 -175
122 -179 4 -2 8 -8 8 -13 0 -6 24 -45 52 -87 29 -42 53 -80 53 -84 0 -4 7 -16
16 -26 19 -22 120 -197 220 -382 7 -14 14 -27 14 -30 1 -3 16 -35 33 -71 18
-36 32 -71 32 -77 0 -7 5 -12 10 -12 6 0 10 -5 10 -11 0 -6 20 -61 44 -122 24
-62 52 -139 62 -172 10 -33 20 -62 21 -65 2 -2 23 -5 46 -5 24 -1 48 -5 55 -9
7 -4 12 -4 12 1 0 10 91 10 108 -1 7 -4 12 -4 12 1 0 10 91 10 108 -1 7 -4 12
-4 12 1 0 10 91 10 108 -1 7 -4 12 -4 12 1 0 10 91 10 108 -1 7 -4 12 -4 12 1
0 10 91 10 108 -1 7 -4 12 -4 12 1 0 10 91 10 108 -1 7 -4 12 -4 12 1 0 10 91
10 108 -1 7 -4 12 -4 12 1 0 10 91 10 108 -1 7 -4 12 -4 12 1 0 10 91 10 108
-1 7 -4 12 -4 12 1 0 10 91 10 108 -1 7 -4 12 -4 12 1 0 10 91 10 108 -1 7 -4
12 -4 12 1 0 4 25 8 55 8 30 0 55 -4 55 -8 0 -5 5 -5 11 -1 17 10 109 10 109
0 0 -5 6 -4 13 1 14 10 107 10 125 -1 7 -4 12 -4 12 1 0 4 38 8 85 8 47 0 85
-4 85 -9 0 -5 6 -4 13 1 14 10 107 10 125 -1 7 -4 12 -4 12 1 0 4 38 8 85 8
47 0 85 -4 85 -9 0 -5 6 -4 13 1 14 10 107 10 125 -1 7 -4 12 -4 12 1 0 4 38
8 85 8 47 0 85 -4 85 -9 0 -5 6 -4 13 1 14 10 107 10 125 -1 7 -4 12 -4 12 1
0 4 38 8 85 8 47 0 85 -4 85 -9 0 -5 6 -4 13 1 14 10 107 10 125 -1 7 -4 12
-3 12 1 0 5 24 8 54 7 l54 -1 20 56 c11 31 30 85 42 121 12 36 26 69 31 74 5
6 9 16 9 22 0 24 158 356 172 362 5 2 8 12 8 23 0 10 5 19 10 19 6 0 10 5 10
10 0 13 42 86 128 223 23 37 42 70 42 72 0 5 247 372 262 389 5 6 38 52 73
101 104 145 269 373 344 475 39 52 76 105 83 117 7 12 33 50 58 85 64 89 175
270 173 280 -2 4 1 8 5 8 5 0 22 28 38 63 16 34 32 64 35 67 6 6 84 171 84
179 0 4 10 26 22 51 11 25 27 63 34 85 7 22 16 45 20 50 5 9 58 162 65 190 2
6 10 35 19 65 9 30 19 69 22 85 3 17 9 38 14 48 5 9 7 17 3 17 -3 0 -1 6 5 13
6 8 9 16 6 18 -2 3 1 25 6 49 6 25 13 56 15 70 2 14 9 48 14 75 12 59 19 112
25 180 3 28 7 70 11 95 4 34 15 306 15 385 0 28 -12 206 -17 250 -3 28 -5 57
-6 65 0 13 -7 67 -23 181 -2 14 -11 64 -20 110 -10 46 -18 91 -19 99 -1 8 -5
24 -9 35 -3 11 -8 33 -11 48 -3 16 -9 43 -15 60 -5 18 -24 79 -42 137 -18 58
-34 107 -34 110 -1 3 -5 12 -8 20 -3 8 -18 45 -31 83 -14 37 -32 82 -39 100
-8 17 -22 50 -32 72 -33 76 -127 259 -166 323 -21 35 -39 67 -39 71 0 5 -9 16
-20 26 -10 9 -18 20 -17 24 1 6 -99 160 -112 171 -3 3 -18 23 -33 45 -15 22
-38 52 -50 67 -13 15 -34 41 -46 57 -13 17 -40 49 -60 72 -21 23 -45 51 -55
63 -59 68 -207 214 -327 320 -55 49 -250 196 -335 253 -112 75 -279 173 -294
173 -6 0 -11 5 -11 11 0 5 -4 8 -9 4 -5 -3 -12 -1 -16 4 -8 14 -304 152 -357
166 -5 2 -10 4 -13 5 -3 1 -8 3 -12 5 -5 1 -15 5 -23 8 -90 39 -390 124 -505
143 -16 3 -46 9 -66 15 -20 5 -56 11 -80 14 -24 2 -54 7 -66 9 -12 3 -48 8
-80 11 -32 4 -76 9 -98 12 -47 5 -552 12 -557 8z m275 -1279 c27 -4 56 -11 65
-15 9 -5 30 -15 46 -22 77 -36 154 -150 160 -238 2 -27 6 -53 9 -58 3 -5 2
-15 -4 -23 -5 -8 -9 -24 -9 -34 0 -44 -67 -141 -134 -194 -21 -16 -119 -51
-143 -50 -33 1 -228 -12 -253 -17 -13 -2 -42 -7 -65 -10 -59 -9 -149 -33 -240
-65 -93 -32 -270 -114 -280 -130 -3 -6 -11 -8 -16 -5 -5 4 -9 1 -9 -4 0 -6 -7
-11 -15 -11 -8 0 -15 -4 -15 -10 0 -5 -7 -10 -15 -10 -8 0 -15 -4 -15 -10 0
-5 -7 -10 -15 -10 -9 0 -18 -7 -21 -15 -4 -8 -11 -15 -16 -15 -6 0 -26 -13
-45 -30 -18 -16 -38 -30 -44 -30 -6 0 -7 -4 -4 -10 3 -5 1 -10 -5 -10 -13 0
-161 -147 -200 -199 -14 -18 -34 -45 -46 -59 -48 -62 -87 -127 -142 -234 -31
-63 -58 -118 -59 -124 -2 -5 -14 -43 -29 -84 -14 -41 -28 -86 -31 -100 -8 -42
-11 -55 -13 -55 -2 0 -9 -35 -15 -75 -3 -19 -7 -46 -10 -60 -3 -14 -8 -75 -10
-136 -6 -172 -27 -234 -102 -309 -48 -47 -60 -55 -118 -75 -54 -19 -154 -21
-200 -5 -88 31 -155 90 -195 170 -23 46 -25 61 -24 185 0 74 3 162 7 195 10
82 23 160 27 160 1 0 3 16 5 35 1 19 3 36 4 38 0 1 1 3 0 5 0 1 4 14 9 28 6
14 13 43 16 63 3 21 10 45 15 54 5 9 9 22 10 27 2 21 44 141 54 153 5 6 7 12
3 12 -4 0 1 15 11 33 9 17 18 34 18 37 5 17 27 67 35 80 6 8 15 26 20 40 6 14
14 32 20 40 5 8 21 36 35 62 34 64 147 229 208 303 66 80 207 225 276 283 31
26 61 52 67 57 6 6 22 17 34 25 12 8 28 20 34 25 54 49 397 246 439 253 4 1
21 9 37 17 17 9 30 13 30 9 0 -4 6 -2 13 3 11 10 152 59 152 54 0 -1 14 3 30
9 17 7 37 13 45 15 8 2 33 8 55 14 22 5 56 13 75 16 19 3 46 8 60 10 54 11 67
13 129 20 36 4 102 8 149 10 46 2 86 6 89 9 3 3 9 4 12 2 3 -2 28 -7 54 -10z"/>
<path d="M3585 1922 c-69 -6 -74 -10 -65 -42 5 -17 5 -30 0 -30 -5 0 -5 -13 0
-30 5 -16 6 -30 2 -30 -4 0 -6 -30 -5 -67 1 -38 2 -68 3 -68 0 0 2 -56 5 -125
2 -69 7 -136 10 -150 3 -14 7 -43 10 -65 3 -22 10 -53 15 -70 5 -16 11 -41 14
-55 5 -30 30 -106 59 -180 31 -78 138 -284 157 -300 3 -3 15 -19 25 -36 45
-70 217 -254 301 -322 154 -123 384 -240 574 -293 25 -7 50 -14 55 -15 6 -2
24 -5 40 -9 17 -3 39 -7 50 -10 66 -14 138 -19 280 -19 131 0 250 7 250 14 0
1 16 3 35 5 36 3 195 45 240 63 14 5 28 10 33 11 4 0 21 8 37 16 17 9 30 13
30 10 0 -17 302 158 343 200 9 8 18 15 21 15 8 0 57 43 137 120 72 70 179 200
219 265 13 22 29 43 34 47 6 4 7 8 3 8 -5 0 0 12 11 28 30 43 118 236 126 277
2 11 10 34 16 50 7 17 14 39 16 50 4 20 6 28 24 115 17 77 20 102 24 193 2 49
6 91 9 93 3 3 1 19 -3 35 -5 16 -5 29 0 29 5 0 5 13 0 30 -5 17 -5 30 0 30 5
0 5 12 1 28 -4 15 -4 39 0 55 4 15 3 27 -1 27 -5 0 -5 12 -1 28 5 15 4 38 0
51 -8 19 -15 23 -44 19 -19 -2 -35 -2 -35 2 0 4 -28 4 -135 0 -20 -1 -157 -2
-185 -1 -69 2 -123 0 -130 -4 -5 -3 -11 -2 -14 3 -3 5 -24 6 -48 3 -24 -4 -63
-4 -88 -1 -25 3 -57 3 -70 0 -14 -4 -36 -4 -50 0 -14 4 -36 4 -50 0 -14 -3
-41 -4 -60 0 -19 3 -51 3 -70 0 -19 -3 -49 -3 -65 1 -17 3 -39 3 -50 -1 -10
-4 -33 -4 -49 0 -17 3 -50 3 -74 0 -23 -4 -45 -4 -47 0 -2 4 -25 4 -50 0 -25
-4 -45 -4 -45 -1 0 5 -48 5 -135 0 -11 0 -65 0 -120 1 -55 1 -102 1 -105 0
-17 -4 -120 -4 -120 0 0 3 -28 4 -62 2 -35 -1 -83 -2 -108 -1 -25 0 -51 0 -57
0 -27 -2 -40 -2 -93 -2 -30 0 -62 0 -70 0 -8 0 -40 0 -70 0 -30 0 -63 1 -72 0
-10 0 -34 0 -53 0 -19 0 -43 0 -52 0 -67 0 -140 0 -150 0 -7 1 -19 1 -25 2 -7
0 -42 0 -78 0 -36 0 -102 0 -147 0 -45 -1 -86 -1 -90 -2 -4 -1 -10 -1 -13 0
-10 4 -126 6 -155 3z"/>
</g>
</svg>
